<svg width="238" height="48" viewBox="0 0 238 48" fill="none" xmlns="http://www.w3.org/2000/svg">
<path fill-rule="evenodd" clip-rule="evenodd" d="M4 1H36C37.6569 1 39 2.34315 39 4V34.7703C39 35.8409 38.4296 36.8303 37.5031 37.3666L21.5371 46.6101C20.5892 47.1589 19.4176 47.1475 18.4806 46.5803L2.44659 36.8756C1.54861 36.3321 1 35.3587 1 34.3091V4C1 2.34315 2.34315 1 4 1ZM17.825 32.545L20 34.525L22.175 32.56L22.2342 32.5062C29.9261 25.5164 35 20.9055 35 15.25C35 10.63 31.37 7 26.75 7C24.14 7 21.635 8.215 20 10.135C18.365 8.215 15.86 7 13.25 7C8.63 7 5 10.63 5 15.25C5 20.9153 10.0916 25.5324 17.806 32.5278L17.825 32.545Z" fill="#F651BF"/>
<path d="M37.5031 37.3666L37.7536 37.7993L37.5031 37.3666ZM21.5371 46.6101L21.2866 46.1774L21.5371 46.6101ZM18.4806 46.5803L18.2217 47.0081L18.4806 46.5803ZM2.44659 36.8756L2.18769 37.3033H2.18769L2.44659 36.8756ZM20 34.525L19.6634 34.8947L19.9987 35.2L20.3352 34.896L20 34.525ZM17.825 32.545L18.1616 32.1753L18.1609 32.1746L17.825 32.545ZM22.175 32.56L22.5102 32.931L22.5113 32.93L22.175 32.56ZM22.2342 32.5062L21.898 32.1362L21.8979 32.1362L22.2342 32.5062ZM20 10.135L19.6193 10.4592L20 10.9062L20.3807 10.4592L20 10.135ZM17.806 32.5278L18.1419 32.1574L18.1419 32.1574L17.806 32.5278ZM36 0.5H4V1.5H36V0.5ZM39.5 4C39.5 2.067 37.933 0.5 36 0.5V1.5C37.3807 1.5 38.5 2.61929 38.5 4H39.5ZM39.5 34.7703V4H38.5V34.7703H39.5ZM37.7536 37.7993C38.8345 37.1736 39.5 36.0193 39.5 34.7703H38.5C38.5 35.6624 38.0246 36.4869 37.2526 36.9339L37.7536 37.7993ZM21.7876 47.0428L37.7536 37.7993L37.2526 36.9339L21.2866 46.1774L21.7876 47.0428ZM18.2217 47.0081C19.3148 47.6698 20.6817 47.6831 21.7876 47.0428L21.2866 46.1774C20.4967 46.6347 19.5203 46.6252 18.7395 46.1526L18.2217 47.0081ZM2.18769 37.3033L18.2217 47.0081L18.7395 46.1526L2.70549 36.4478L2.18769 37.3033ZM0.5 34.3091C0.5 35.5337 1.14004 36.6692 2.18769 37.3033L2.70549 36.4478C1.95717 35.9949 1.5 35.1838 1.5 34.3091H0.5ZM0.5 4V34.3091H1.5V4H0.5ZM4 0.5C2.067 0.5 0.5 2.067 0.5 4H1.5C1.5 2.61929 2.61929 1.5 4 1.5V0.5ZM20.3366 34.1553L18.1616 32.1753L17.4884 32.9147L19.6634 34.8947L20.3366 34.1553ZM21.8398 32.189L19.6648 34.154L20.3352 34.896L22.5102 32.931L21.8398 32.189ZM21.8979 32.1362L21.8387 32.19L22.5113 32.93L22.5705 32.8762L21.8979 32.1362ZM34.5 15.25C34.5 17.9139 33.3095 20.3707 31.1141 23.0616C28.913 25.7597 25.7539 28.6322 21.898 32.1362L22.5705 32.8762C26.4064 29.3904 29.6302 26.4625 31.889 23.6938C34.1535 20.918 35.5 18.2416 35.5 15.25H34.5ZM26.75 7.5C31.0939 7.5 34.5 10.9061 34.5 15.25H35.5C35.5 10.3539 31.6461 6.5 26.75 6.5V7.5ZM20.3807 10.4592C21.9239 8.64697 24.2914 7.5 26.75 7.5V6.5C23.9886 6.5 21.3461 7.78303 19.6193 9.81083L20.3807 10.4592ZM13.25 7.5C15.7086 7.5 18.0761 8.64697 19.6193 10.4592L20.3807 9.81083C18.6539 7.78303 16.0114 6.5 13.25 6.5V7.5ZM5.5 15.25C5.5 10.9061 8.90614 7.5 13.25 7.5V6.5C8.35386 6.5 4.5 10.3539 4.5 15.25H5.5ZM18.1419 32.1574C14.2747 28.6506 11.1055 25.7752 8.89723 23.0737C6.69466 20.3792 5.5 17.9186 5.5 15.25H4.5C4.5 18.2468 5.85116 20.9274 8.12299 23.7066C10.3891 26.4788 13.6229 29.4095 17.4701 32.8982L18.1419 32.1574ZM18.1609 32.1746L18.1419 32.1574L17.4701 32.8981L17.4891 32.9154L18.1609 32.1746Z" fill="#F651BF"/>
<path d="M59 12.5108C59.1758 12.5108 59.4805 12.5167 59.9141 12.5284C60.3594 12.5284 60.8516 12.5284 61.3906 12.5284C61.9414 12.5284 62.4922 12.5343 63.043 12.546C63.6055 12.546 64.0918 12.546 64.502 12.546C64.7715 12.546 65.0996 12.546 65.4863 12.546C65.873 12.546 66.2891 12.546 66.7344 12.546C67.1914 12.5343 67.666 12.5284 68.1582 12.5284C68.6504 12.5167 69.1367 12.5108 69.6172 12.5108V15.6397H69.002C68.5449 15.6397 68.1934 15.6807 67.9473 15.7628C67.7129 15.8448 67.5371 15.962 67.4199 16.1143C67.3027 16.255 67.2324 16.4307 67.209 16.6417C67.1973 16.8526 67.1914 17.0811 67.1914 17.3272V22.2315H76.4727V17.0108C76.4727 16.7413 76.4434 16.5186 76.3848 16.3428C76.3379 16.1671 76.2441 16.0264 76.1035 15.921C75.9746 15.8155 75.793 15.7452 75.5586 15.71C75.3242 15.6632 75.0254 15.6397 74.6621 15.6397H74.0469V12.5108C75.1836 12.5343 76.2324 12.546 77.1934 12.546C78.1543 12.546 79.0859 12.546 79.9883 12.546C80.2109 12.546 80.4922 12.546 80.832 12.546C81.1836 12.546 81.5703 12.546 81.9922 12.546C82.4141 12.5343 82.8594 12.5284 83.3281 12.5284C83.7969 12.5167 84.2539 12.5108 84.6992 12.5108V15.6397H84.1367C83.6797 15.6397 83.3223 15.6749 83.0645 15.7452C82.8066 15.8038 82.6133 15.9034 82.4844 16.044C82.3672 16.1729 82.291 16.337 82.2559 16.5362C82.2324 16.7237 82.2207 16.9405 82.2207 17.1866V30.4405C82.2207 30.7803 82.2266 31.0733 82.2383 31.3194C82.25 31.5538 82.3086 31.753 82.4141 31.9171C82.5312 32.0694 82.7188 32.1866 82.9766 32.2686C83.2461 32.3389 83.6328 32.3741 84.1367 32.3741H84.6992V35.503C84.2773 35.503 83.8672 35.503 83.4688 35.503C83.082 35.4913 82.6836 35.4854 82.2734 35.4854C81.8633 35.4854 81.4238 35.4854 80.9551 35.4854C80.498 35.4737 79.9883 35.4678 79.4258 35.4678C78.3711 35.4678 77.4102 35.4737 76.543 35.4854C75.6875 35.4971 74.8555 35.503 74.0469 35.503V32.3741H74.6621C75.084 32.3741 75.4121 32.3507 75.6465 32.3038C75.8926 32.2569 76.0742 32.169 76.1914 32.0401C76.3203 31.8995 76.3965 31.7178 76.4199 31.4952C76.4551 31.2608 76.4727 30.9678 76.4727 30.6163V25.255H67.1914V30.9503C67.1914 31.3018 67.2148 31.5772 67.2617 31.7764C67.3203 31.9639 67.4199 32.1046 67.5605 32.1983C67.7012 32.2803 67.8887 32.3331 68.123 32.3565C68.3574 32.3682 68.6504 32.3741 69.002 32.3741H69.6172V35.503C69.1836 35.503 68.7617 35.503 68.3516 35.503C67.9531 35.4913 67.5371 35.4854 67.1035 35.4854C66.6816 35.4854 66.2305 35.4854 65.75 35.4854C65.2695 35.4737 64.7363 35.4678 64.1504 35.4678C63.5996 35.4678 63.0957 35.4737 62.6387 35.4854C62.1934 35.4854 61.7656 35.4854 61.3555 35.4854C60.9453 35.4854 60.5469 35.4913 60.1602 35.503C59.7852 35.503 59.3984 35.503 59 35.503V32.3741H59.5449C60.0137 32.3741 60.377 32.3272 60.6348 32.2335C60.8926 32.128 61.0801 31.9874 61.1973 31.8116C61.3262 31.6358 61.3965 31.4307 61.4082 31.1964C61.4316 30.9503 61.4434 30.6866 61.4434 30.4053V17.0636C61.4434 16.8292 61.4258 16.6241 61.3906 16.4483C61.3672 16.2608 61.291 16.1085 61.1621 15.9913C61.0332 15.8741 60.8398 15.7862 60.582 15.7276C60.3359 15.669 59.9902 15.6397 59.5449 15.6397H59V12.5108Z" fill="#3A0CA3"/>
<path d="M107.305 12.5108V18.9093H103.877V18.1886C103.877 17.6261 103.818 17.1925 103.701 16.8878C103.584 16.5831 103.42 16.3663 103.209 16.2374C102.998 16.0968 102.74 16.0147 102.436 15.9913C102.131 15.9678 101.791 15.9561 101.416 15.9561H95.5273V22.337H98.9902C99.248 22.337 99.4648 22.3253 99.6406 22.3018C99.8281 22.2667 99.9863 22.1964 100.115 22.0909C100.244 21.9854 100.35 21.8214 100.432 21.5987C100.525 21.3761 100.602 21.0714 100.66 20.6846H102.154V26.9073H100.643C100.572 26.5323 100.496 26.2335 100.414 26.0108C100.332 25.7882 100.227 25.6241 100.098 25.5186C99.9688 25.4014 99.8164 25.3311 99.6406 25.3077C99.4648 25.2725 99.248 25.255 98.9902 25.255H95.5273V32.0928H101.662C102.096 32.0928 102.459 32.0636 102.752 32.005C103.045 31.9464 103.279 31.8175 103.455 31.6182C103.643 31.419 103.777 31.1378 103.859 30.7745C103.941 30.3995 103.982 29.9014 103.982 29.2803V28.7178H107.375V35.503H87.2129V32.3741H88.5137C88.8184 32.3741 89.0527 32.3214 89.2168 32.2159C89.3926 32.1104 89.5215 31.9639 89.6035 31.7764C89.6973 31.5889 89.75 31.378 89.7617 31.1436C89.7852 30.9093 89.7969 30.6573 89.7969 30.3878V17.7315C89.7969 17.4737 89.791 17.2159 89.7793 16.9581C89.7676 16.7003 89.7207 16.4718 89.6387 16.2725C89.5566 16.0733 89.4277 15.9151 89.252 15.7979C89.0879 15.669 88.8418 15.6046 88.5137 15.6046H87.2832V12.5108H107.305Z" fill="#3A0CA3"/>
<path d="M110.311 12.5108C110.393 12.5108 110.598 12.5167 110.926 12.5284C111.266 12.5284 111.646 12.5343 112.068 12.546C112.49 12.546 112.912 12.5518 113.334 12.5636C113.768 12.5636 114.125 12.5636 114.406 12.5636C114.969 12.5636 115.52 12.5636 116.059 12.5636C116.598 12.5636 117.148 12.5636 117.711 12.5636C118.273 12.5518 118.859 12.546 119.469 12.546C120.078 12.5343 120.734 12.5225 121.438 12.5108V15.6397H120.295C119.896 15.6397 119.586 15.6983 119.363 15.8155C119.141 15.9327 118.971 16.085 118.854 16.2725C118.748 16.46 118.684 16.6768 118.66 16.9229C118.637 17.1573 118.625 17.3975 118.625 17.6436V24.921C118.625 27.0186 118.631 29.3917 118.643 32.0401H124.32C124.766 32.0401 125.111 31.9464 125.357 31.7589C125.615 31.5714 125.803 31.296 125.92 30.9327C126.049 30.5577 126.131 30.1007 126.166 29.5616C126.201 29.0225 126.219 28.4014 126.219 27.6983H129.436V35.503H110.311V32.3741H111.137C111.559 32.3741 111.887 32.3214 112.121 32.2159C112.367 32.1104 112.543 31.9698 112.648 31.794C112.766 31.6182 112.836 31.4073 112.859 31.1612C112.883 30.9151 112.895 30.6514 112.895 30.3702V17.4327C112.895 17.1983 112.877 16.9757 112.842 16.7647C112.807 16.5421 112.73 16.3487 112.613 16.1846C112.496 16.0206 112.32 15.8917 112.086 15.7979C111.852 15.6925 111.535 15.6397 111.137 15.6397H110.311V12.5108Z" fill="#3A0CA3"/>
<path d="M143.322 12.5108C145.045 12.5108 146.51 12.6807 147.717 13.0206C148.924 13.3487 149.908 13.8116 150.67 14.4093C151.432 15.0069 151.988 15.7276 152.34 16.5714C152.691 17.4034 152.867 18.3233 152.867 19.3311C152.867 20.3272 152.709 21.2354 152.393 22.0557C152.076 22.8761 151.543 23.585 150.793 24.1827C150.055 24.7686 149.07 25.2257 147.84 25.5538C146.621 25.8702 145.098 26.0284 143.27 26.0284H139.771V30.7042C139.771 31.0792 139.795 31.378 139.842 31.6007C139.9 31.8233 139.994 31.9932 140.123 32.1104C140.252 32.2159 140.434 32.2862 140.668 32.3214C140.902 32.3565 141.207 32.3741 141.582 32.3741H142.461V35.503C142.051 35.503 141.652 35.503 141.266 35.503C140.879 35.4913 140.48 35.4854 140.07 35.4854C139.66 35.4854 139.221 35.4854 138.752 35.4854C138.295 35.4737 137.797 35.4678 137.258 35.4678C136.66 35.4678 136.098 35.4737 135.57 35.4854C135.055 35.4854 134.551 35.4854 134.059 35.4854C133.578 35.4854 133.109 35.4913 132.652 35.503C132.195 35.503 131.738 35.503 131.281 35.503V32.3741H132.16C132.594 32.3741 132.934 32.3507 133.18 32.3038C133.438 32.2569 133.625 32.1632 133.742 32.0225C133.859 31.8702 133.93 31.6651 133.953 31.4073C133.988 31.1378 134.006 30.7862 134.006 30.3526V17.5557C134.006 17.2745 133.994 17.0225 133.971 16.7999C133.947 16.5655 133.877 16.3663 133.76 16.2022C133.643 16.0264 133.467 15.8917 133.232 15.7979C132.998 15.6925 132.67 15.6397 132.248 15.6397H131.281V12.5108H143.322ZM139.771 22.9346H142.619C144.084 22.9346 145.186 22.6358 145.924 22.0382C146.662 21.4405 147.031 20.5264 147.031 19.296C147.031 18.6983 146.943 18.1768 146.768 17.7315C146.592 17.2745 146.316 16.8995 145.941 16.6065C145.566 16.3018 145.08 16.0733 144.482 15.921C143.885 15.7686 143.158 15.6925 142.303 15.6925H139.771V22.9346Z" fill="#3A0CA3"/>
<path d="M174.893 12.5108V19.085H171.482V18.2413C171.482 17.6788 171.424 17.2452 171.307 16.9405C171.189 16.6358 171.031 16.4132 170.832 16.2725C170.633 16.1202 170.398 16.0323 170.129 16.0089C169.871 15.9737 169.596 15.9561 169.303 15.9561H163.344V22.3546H166.438C166.73 22.3546 166.977 22.3487 167.176 22.337C167.387 22.3136 167.562 22.2608 167.703 22.1788C167.844 22.085 167.955 21.9386 168.037 21.7393C168.119 21.5401 168.178 21.2589 168.213 20.8956H169.531V26.7139H168.213C168.178 26.3858 168.119 26.128 168.037 25.9405C167.955 25.753 167.85 25.6124 167.721 25.5186C167.592 25.4132 167.422 25.3487 167.211 25.3253C167.012 25.2901 166.771 25.2725 166.49 25.2725H163.344V30.9151C163.344 31.2315 163.373 31.4893 163.432 31.6886C163.49 31.8761 163.59 32.0225 163.73 32.128C163.871 32.2218 164.053 32.2862 164.275 32.3214C164.51 32.3565 164.797 32.3741 165.137 32.3741H166.209V35.503C165.705 35.503 165.219 35.503 164.75 35.503C164.281 35.503 163.795 35.503 163.291 35.503C162.799 35.4913 162.277 35.4854 161.727 35.4854C161.176 35.4737 160.572 35.4678 159.916 35.4678C159.342 35.4678 158.826 35.4737 158.369 35.4854C157.924 35.4854 157.502 35.4854 157.104 35.4854C156.717 35.4854 156.336 35.4913 155.961 35.503C155.598 35.503 155.211 35.503 154.801 35.503V32.3741H155.979C156.295 32.3741 156.559 32.3565 156.77 32.3214C156.98 32.2745 157.145 32.1807 157.262 32.0401C157.391 31.8995 157.479 31.6944 157.525 31.4249C157.572 31.1553 157.596 30.7921 157.596 30.335V17.6436C157.596 17.2569 157.584 16.9346 157.561 16.6768C157.537 16.419 157.473 16.2139 157.367 16.0616C157.262 15.8975 157.098 15.7862 156.875 15.7276C156.664 15.6573 156.365 15.6221 155.979 15.6221H154.836V12.5108H174.893Z" fill="#3A0CA3"/>
<path d="M176.369 12.5108C176.451 12.5108 176.656 12.5167 176.984 12.5284C177.324 12.5284 177.705 12.5343 178.127 12.546C178.549 12.546 178.971 12.5518 179.393 12.5636C179.826 12.5636 180.184 12.5636 180.465 12.5636C181.027 12.5636 181.578 12.5636 182.117 12.5636C182.656 12.5636 183.207 12.5636 183.77 12.5636C184.332 12.5518 184.918 12.546 185.527 12.546C186.137 12.5343 186.793 12.5225 187.496 12.5108V15.6397H186.354C185.955 15.6397 185.645 15.6983 185.422 15.8155C185.199 15.9327 185.029 16.085 184.912 16.2725C184.807 16.46 184.742 16.6768 184.719 16.9229C184.695 17.1573 184.684 17.3975 184.684 17.6436V24.921C184.684 27.0186 184.689 29.3917 184.701 32.0401H190.379C190.824 32.0401 191.17 31.9464 191.416 31.7589C191.674 31.5714 191.861 31.296 191.979 30.9327C192.107 30.5577 192.189 30.1007 192.225 29.5616C192.26 29.0225 192.277 28.4014 192.277 27.6983H195.494V35.503H176.369V32.3741H177.195C177.617 32.3741 177.945 32.3214 178.18 32.2159C178.426 32.1104 178.602 31.9698 178.707 31.794C178.824 31.6182 178.895 31.4073 178.918 31.1612C178.941 30.9151 178.953 30.6514 178.953 30.3702V17.4327C178.953 17.1983 178.936 16.9757 178.9 16.7647C178.865 16.5421 178.789 16.3487 178.672 16.1846C178.555 16.0206 178.379 15.8917 178.145 15.7979C177.91 15.6925 177.594 15.6397 177.195 15.6397H176.369V12.5108Z" fill="#3A0CA3"/>
<path d="M197.445 12.5108C197.973 12.5225 198.453 12.5343 198.887 12.546C199.32 12.546 199.725 12.546 200.1 12.546C200.475 12.546 200.832 12.546 201.172 12.546C201.523 12.546 201.869 12.546 202.209 12.546C202.912 12.546 203.533 12.546 204.072 12.546C204.623 12.546 205.127 12.546 205.584 12.546C206.053 12.546 206.498 12.546 206.92 12.546C207.354 12.5343 207.805 12.5225 208.273 12.5108V15.6397H207.535C207.113 15.6397 206.779 15.6807 206.533 15.7628C206.299 15.8331 206.117 15.9444 205.988 16.0968C205.871 16.2374 205.795 16.4132 205.76 16.6241C205.736 16.8233 205.725 17.0518 205.725 17.3096V30.7745C205.725 31.0909 205.736 31.3546 205.76 31.5655C205.783 31.7647 205.854 31.9288 205.971 32.0577C206.088 32.1749 206.264 32.2569 206.498 32.3038C206.744 32.3507 207.09 32.3741 207.535 32.3741H208.273V35.503C207.84 35.503 207.418 35.503 207.008 35.503C206.598 35.4913 206.176 35.4854 205.742 35.4854C205.32 35.4854 204.863 35.4854 204.371 35.4854C203.891 35.4737 203.363 35.4678 202.789 35.4678C201.711 35.4678 200.756 35.4737 199.924 35.4854C199.104 35.4971 198.277 35.503 197.445 35.503V32.3741H198.148C198.605 32.3741 198.957 32.3331 199.203 32.2511C199.449 32.169 199.631 32.046 199.748 31.8819C199.865 31.7178 199.93 31.5128 199.941 31.2667C199.965 31.0206 199.977 30.7335 199.977 30.4053V17.6612C199.977 17.3214 199.965 17.0284 199.941 16.7823C199.918 16.5245 199.848 16.3136 199.73 16.1495C199.613 15.9737 199.432 15.8448 199.186 15.7628C198.939 15.6807 198.594 15.6397 198.148 15.6397H197.445V12.5108Z" fill="#3A0CA3"/>
<path d="M210.277 12.5108C211.016 12.5225 211.625 12.5284 212.105 12.5284C212.598 12.5284 213.043 12.5284 213.441 12.5284C213.84 12.5284 214.244 12.5284 214.654 12.5284C215.064 12.5284 215.562 12.5284 216.148 12.5284C216.477 12.5401 216.898 12.546 217.414 12.546C217.941 12.546 218.492 12.546 219.066 12.546C219.641 12.546 220.209 12.5401 220.771 12.5284C221.334 12.5167 221.826 12.5108 222.248 12.5108V15.6397H221.492C221.023 15.6397 220.66 15.6632 220.402 15.71C220.145 15.7569 220.016 15.8858 220.016 16.0968C220.016 16.1905 220.115 16.3663 220.314 16.6241C220.525 16.8702 220.76 17.128 221.018 17.3975L224.428 21.1241C224.428 21.1241 224.492 21.0421 224.621 20.878C224.762 20.7139 224.938 20.5089 225.148 20.2628C225.371 20.005 225.611 19.7237 225.869 19.419C226.139 19.1143 226.396 18.8155 226.643 18.5225C226.889 18.2178 227.111 17.9425 227.311 17.6964C227.521 17.4386 227.674 17.2393 227.768 17.0987C228.002 16.8057 228.201 16.5772 228.365 16.4132C228.529 16.2491 228.611 16.1436 228.611 16.0968C228.611 15.8975 228.412 15.7803 228.014 15.7452C227.627 15.6983 227.053 15.6632 226.291 15.6397V12.5108C226.76 12.5108 227.246 12.5167 227.75 12.5284C228.266 12.5401 228.764 12.5518 229.244 12.5636C229.736 12.5636 230.199 12.5636 230.633 12.5636C231.066 12.5636 231.441 12.5577 231.758 12.546C232.66 12.546 233.557 12.546 234.447 12.546C235.338 12.546 236.316 12.5343 237.383 12.5108L237.348 15.3585C236.855 15.3585 236.422 15.3702 236.047 15.3936C235.672 15.4171 235.338 15.4639 235.045 15.5343C234.752 15.6046 234.488 15.71 234.254 15.8507C234.031 15.9913 233.826 16.1846 233.639 16.4307C233.615 16.4425 233.51 16.5538 233.322 16.7647C233.135 16.9757 232.889 17.2511 232.584 17.5909C232.279 17.919 231.939 18.294 231.564 18.7159C231.189 19.1261 230.803 19.5538 230.404 19.9991C230.006 20.4327 229.619 20.8546 229.244 21.2647C228.869 21.6749 228.535 22.044 228.242 22.3721C227.949 22.7003 227.715 22.9639 227.539 23.1632L227.275 23.4444L233.41 30.0011C233.773 30.4112 234.102 30.7686 234.395 31.0733C234.688 31.3663 234.998 31.6124 235.326 31.8116C235.654 32.0108 236.023 32.1573 236.434 32.2511C236.844 32.3448 237.348 32.3917 237.945 32.3917V35.503C236.984 35.4913 236.029 35.4796 235.08 35.4678C234.143 35.4561 233.129 35.4503 232.039 35.4503C230.82 35.4503 229.672 35.4561 228.594 35.4678C227.527 35.4796 226.449 35.4913 225.359 35.503C225.359 34.9757 225.354 34.46 225.342 33.9561C225.342 33.4405 225.342 32.919 225.342 32.3917C226.068 32.3917 226.654 32.3565 227.1 32.2862C227.557 32.2159 227.785 32.046 227.785 31.7764C227.785 31.7178 227.744 31.63 227.662 31.5128C227.58 31.3839 227.475 31.2432 227.346 31.0909C227.229 30.9268 227.094 30.7569 226.941 30.5811C226.789 30.4053 226.637 30.2296 226.484 30.0538L223.443 26.4151L220.209 30.1241C219.775 30.5928 219.471 30.962 219.295 31.2315C219.119 31.5011 219.031 31.7003 219.031 31.8292C219.031 31.9698 219.09 32.0811 219.207 32.1632C219.336 32.2335 219.512 32.2862 219.734 32.3214C219.957 32.3565 220.221 32.38 220.525 32.3917C220.83 32.3917 221.164 32.3917 221.527 32.3917V35.503C220.191 35.503 218.973 35.4971 217.871 35.4854C216.77 35.4737 215.85 35.4678 215.111 35.4678C214.807 35.4678 214.502 35.4678 214.197 35.4678C213.904 35.4678 213.57 35.4737 213.195 35.4854C212.82 35.4854 212.387 35.4913 211.895 35.503C211.402 35.503 210.805 35.503 210.102 35.503V32.3741C210.559 32.3741 210.945 32.3565 211.262 32.3214C211.59 32.2862 211.906 32.2042 212.211 32.0753C212.527 31.9464 212.85 31.7471 213.178 31.4776C213.518 31.2081 213.922 30.8448 214.391 30.3878L220.385 24.1475L214.531 17.8018C214.039 17.2745 213.635 16.8702 213.318 16.5889C213.002 16.296 212.703 16.085 212.422 15.9561C212.141 15.8155 211.836 15.7335 211.508 15.71C211.191 15.6749 210.781 15.6514 210.277 15.6397V12.5108Z" fill="#3A0CA3"/>
</svg>
